<mxfile host="Electron" modified="2023-07-20T10:22:33.329Z" agent="Mozilla/5.0 (Macintosh; Intel Mac OS X 10_15_7) AppleWebKit/537.36 (KHTML, like Gecko) draw.io/21.6.1 Chrome/112.0.5615.204 Electron/24.6.1 Safari/537.36" etag="nzFIcT2N_zOo7JfCeowK" version="21.6.1" type="device">
  <diagram name="Page-1" id="bRJaaYgt9LoUnJo3XgJA">
    <mxGraphModel dx="1645" dy="1393" grid="1" gridSize="10" guides="1" tooltips="1" connect="1" arrows="1" fold="1" page="1" pageScale="1" pageWidth="850" pageHeight="1100" math="0" shadow="0">
      <root>
        <mxCell id="0" />
        <mxCell id="1" parent="0" />
        <mxCell id="MyCjg8jNjYNJ0jFQ8e_i-5" value="image registry" style="rounded=1;whiteSpace=wrap;html=1;fontFamily=Comic Sans MS;" parent="1" vertex="1">
          <mxGeometry x="560" y="170" width="120" height="60" as="geometry" />
        </mxCell>
        <mxCell id="1FVxKT_KeWVKLxRqhHUP-10" style="rounded=0;orthogonalLoop=1;jettySize=auto;html=1;entryX=0.5;entryY=0;entryDx=0;entryDy=0;exitX=0.5;exitY=1;exitDx=0;exitDy=0;fontFamily=Comic Sans MS;" edge="1" parent="1" source="1FVxKT_KeWVKLxRqhHUP-17" target="1FVxKT_KeWVKLxRqhHUP-8">
          <mxGeometry relative="1" as="geometry" />
        </mxCell>
        <mxCell id="1FVxKT_KeWVKLxRqhHUP-11" style="rounded=0;orthogonalLoop=1;jettySize=auto;html=1;exitX=0.5;exitY=1;exitDx=0;exitDy=0;entryX=0.5;entryY=0;entryDx=0;entryDy=0;fontFamily=Comic Sans MS;" edge="1" parent="1" source="1FVxKT_KeWVKLxRqhHUP-17" target="1FVxKT_KeWVKLxRqhHUP-9">
          <mxGeometry relative="1" as="geometry">
            <mxPoint x="700" y="640" as="targetPoint" />
          </mxGeometry>
        </mxCell>
        <mxCell id="1FVxKT_KeWVKLxRqhHUP-18" style="edgeStyle=orthogonalEdgeStyle;rounded=0;orthogonalLoop=1;jettySize=auto;html=1;entryX=0;entryY=0.5;entryDx=0;entryDy=0;fontFamily=Comic Sans MS;" edge="1" parent="1" source="MyCjg8jNjYNJ0jFQ8e_i-13" target="1FVxKT_KeWVKLxRqhHUP-17">
          <mxGeometry relative="1" as="geometry" />
        </mxCell>
        <mxCell id="MyCjg8jNjYNJ0jFQ8e_i-13" value="qaenv-controller" style="rounded=1;whiteSpace=wrap;html=1;fontFamily=Comic Sans MS;fillColor=#d5e8d4;strokeColor=#82b366;" parent="1" vertex="1">
          <mxGeometry x="560" y="520" width="120" height="60" as="geometry" />
        </mxCell>
        <mxCell id="1FVxKT_KeWVKLxRqhHUP-1" value="application repo" style="rounded=1;whiteSpace=wrap;html=1;fontFamily=Comic Sans MS;" vertex="1" parent="1">
          <mxGeometry x="210" y="340" width="120" height="60" as="geometry" />
        </mxCell>
        <mxCell id="1FVxKT_KeWVKLxRqhHUP-2" value="flux repo" style="rounded=1;whiteSpace=wrap;html=1;fontFamily=Comic Sans MS;" vertex="1" parent="1">
          <mxGeometry x="110" y="480" width="120" height="60" as="geometry" />
        </mxCell>
        <mxCell id="1FVxKT_KeWVKLxRqhHUP-5" style="edgeStyle=orthogonalEdgeStyle;rounded=0;orthogonalLoop=1;jettySize=auto;html=1;entryX=0.5;entryY=1;entryDx=0;entryDy=0;fontFamily=Comic Sans MS;" edge="1" parent="1" source="1FVxKT_KeWVKLxRqhHUP-3" target="MyCjg8jNjYNJ0jFQ8e_i-5">
          <mxGeometry relative="1" as="geometry" />
        </mxCell>
        <mxCell id="1FVxKT_KeWVKLxRqhHUP-3" value="image-reflector-controller" style="rounded=1;whiteSpace=wrap;html=1;fontFamily=Comic Sans MS;fillColor=#dae8fc;strokeColor=#6c8ebf;" vertex="1" parent="1">
          <mxGeometry x="560" y="280" width="120" height="60" as="geometry" />
        </mxCell>
        <mxCell id="1FVxKT_KeWVKLxRqhHUP-6" style="edgeStyle=orthogonalEdgeStyle;rounded=0;orthogonalLoop=1;jettySize=auto;html=1;entryX=0.5;entryY=1;entryDx=0;entryDy=0;fontFamily=Comic Sans MS;" edge="1" parent="1" source="1FVxKT_KeWVKLxRqhHUP-4" target="1FVxKT_KeWVKLxRqhHUP-3">
          <mxGeometry relative="1" as="geometry" />
        </mxCell>
        <mxCell id="1FVxKT_KeWVKLxRqhHUP-20" value="(1)watching the env image repositories" style="edgeLabel;html=1;align=center;verticalAlign=middle;resizable=0;points=[];fontFamily=Comic Sans MS;" vertex="1" connectable="0" parent="1FVxKT_KeWVKLxRqhHUP-6">
          <mxGeometry x="-0.0537" y="-1" relative="1" as="geometry">
            <mxPoint as="offset" />
          </mxGeometry>
        </mxCell>
        <mxCell id="1FVxKT_KeWVKLxRqhHUP-7" value="create/update/delete" style="edgeStyle=orthogonalEdgeStyle;rounded=0;orthogonalLoop=1;jettySize=auto;html=1;fontFamily=Comic Sans MS;" edge="1" parent="1" source="1FVxKT_KeWVKLxRqhHUP-4" target="MyCjg8jNjYNJ0jFQ8e_i-13">
          <mxGeometry relative="1" as="geometry" />
        </mxCell>
        <mxCell id="1FVxKT_KeWVKLxRqhHUP-13" style="rounded=0;orthogonalLoop=1;jettySize=auto;html=1;entryX=1;entryY=0.5;entryDx=0;entryDy=0;exitX=0;exitY=0.5;exitDx=0;exitDy=0;fontFamily=Comic Sans MS;" edge="1" parent="1" source="1FVxKT_KeWVKLxRqhHUP-4" target="1FVxKT_KeWVKLxRqhHUP-1">
          <mxGeometry relative="1" as="geometry" />
        </mxCell>
        <mxCell id="1FVxKT_KeWVKLxRqhHUP-14" value="(2) watching event &amp;amp; update env status" style="edgeLabel;html=1;align=center;verticalAlign=middle;resizable=0;points=[];fontFamily=Comic Sans MS;" vertex="1" connectable="0" parent="1FVxKT_KeWVKLxRqhHUP-13">
          <mxGeometry x="0.0071" y="-1" relative="1" as="geometry">
            <mxPoint as="offset" />
          </mxGeometry>
        </mxCell>
        <mxCell id="1FVxKT_KeWVKLxRqhHUP-15" style="rounded=0;orthogonalLoop=1;jettySize=auto;html=1;entryX=1;entryY=0.5;entryDx=0;entryDy=0;exitX=0;exitY=0.5;exitDx=0;exitDy=0;startArrow=classic;startFill=1;fontFamily=Comic Sans MS;" edge="1" parent="1" source="1FVxKT_KeWVKLxRqhHUP-4" target="1FVxKT_KeWVKLxRqhHUP-60">
          <mxGeometry relative="1" as="geometry" />
        </mxCell>
        <mxCell id="1FVxKT_KeWVKLxRqhHUP-16" value="synchronize" style="edgeLabel;html=1;align=center;verticalAlign=middle;resizable=0;points=[];fontFamily=Comic Sans MS;" vertex="1" connectable="0" parent="1FVxKT_KeWVKLxRqhHUP-15">
          <mxGeometry x="0.0017" y="1" relative="1" as="geometry">
            <mxPoint as="offset" />
          </mxGeometry>
        </mxCell>
        <mxCell id="1FVxKT_KeWVKLxRqhHUP-4" value="coordinator-controller" style="rounded=1;whiteSpace=wrap;html=1;fontFamily=Comic Sans MS;fillColor=#d5e8d4;strokeColor=#82b366;" vertex="1" parent="1">
          <mxGeometry x="560" y="400" width="120" height="60" as="geometry" />
        </mxCell>
        <mxCell id="1FVxKT_KeWVKLxRqhHUP-8" value="qa0" style="rounded=1;whiteSpace=wrap;html=1;fontFamily=Comic Sans MS;" vertex="1" parent="1">
          <mxGeometry x="590" y="640" width="120" height="60" as="geometry" />
        </mxCell>
        <mxCell id="1FVxKT_KeWVKLxRqhHUP-9" value="qa1" style="rounded=1;whiteSpace=wrap;html=1;fontFamily=Comic Sans MS;" vertex="1" parent="1">
          <mxGeometry x="730" y="640" width="120" height="60" as="geometry" />
        </mxCell>
        <mxCell id="1FVxKT_KeWVKLxRqhHUP-12" value="..." style="rounded=1;whiteSpace=wrap;html=1;fontFamily=Comic Sans MS;" vertex="1" parent="1">
          <mxGeometry x="870" y="640" width="120" height="60" as="geometry" />
        </mxCell>
        <mxCell id="1FVxKT_KeWVKLxRqhHUP-19" style="rounded=0;orthogonalLoop=1;jettySize=auto;html=1;entryX=0.5;entryY=0;entryDx=0;entryDy=0;exitX=0.5;exitY=1;exitDx=0;exitDy=0;fontFamily=Comic Sans MS;" edge="1" parent="1" source="1FVxKT_KeWVKLxRqhHUP-17" target="1FVxKT_KeWVKLxRqhHUP-12">
          <mxGeometry relative="1" as="geometry" />
        </mxCell>
        <mxCell id="1FVxKT_KeWVKLxRqhHUP-17" value="kustomization" style="rounded=1;whiteSpace=wrap;html=1;fontFamily=Comic Sans MS;fillColor=#dae8fc;strokeColor=#6c8ebf;" vertex="1" parent="1">
          <mxGeometry x="730" y="520" width="120" height="60" as="geometry" />
        </mxCell>
        <mxCell id="1FVxKT_KeWVKLxRqhHUP-46" value="Type: Coordinator&lt;br&gt;Spec:&lt;br&gt;&lt;span style=&quot;white-space: pre;&quot;&gt;&#x9;&lt;/span&gt;imageRepositoryNames: array&lt;br&gt;&lt;span style=&quot;white-space: pre;&quot;&gt;&#x9;&lt;/span&gt;githubRepoSecretRef: ref&lt;br&gt;&lt;span style=&quot;white-space: pre;&quot;&gt;&#x9;&lt;/span&gt;githubRepoURL: string&lt;br&gt;&lt;span style=&quot;white-space: pre;&quot;&gt;&#x9;&lt;/span&gt;" style="whiteSpace=wrap;html=1;shape=mxgraph.basic.document;align=left;verticalAlign=top;fontFamily=Comic Sans MS;" vertex="1" parent="1">
          <mxGeometry x="850" y="110" width="290" height="340" as="geometry" />
        </mxCell>
        <mxCell id="1FVxKT_KeWVKLxRqhHUP-48" value="(1)&lt;span style=&quot;white-space: pre;&quot;&gt;&#x9;&lt;/span&gt;- detect changes in image policy =&amp;gt; new deploy request to env&lt;br&gt;&lt;span style=&quot;white-space: pre;&quot;&gt;&#x9;&lt;/span&gt;- new image is pushed mean this env need to update&lt;br&gt;&lt;span style=&quot;white-space: pre;&quot;&gt;&#x9;&lt;/span&gt;can lock env when a pr is using&lt;br&gt;(2) &lt;span style=&quot;white-space: pre;&quot;&gt;&#x9;&lt;/span&gt;- revoke qaenv when pr is merged&lt;br&gt;&lt;span style=&quot;white-space: pre;&quot;&gt;&#x9;&lt;/span&gt;- report env is available or locked&lt;br&gt;&lt;br&gt;&lt;br&gt;features list:&lt;br&gt;&lt;span style=&quot;white-space: pre;&quot;&gt;&#x9;&lt;/span&gt;- dynamic provision qa env&lt;br&gt;&lt;span style=&quot;white-space: pre;&quot;&gt;&#x9;&lt;/span&gt;- report status to repo and pr&lt;br&gt;&lt;span style=&quot;white-space: pre;&quot;&gt;&#x9;&lt;/span&gt;- lock env&lt;br&gt;&lt;span style=&quot;white-space: pre;&quot;&gt;&#x9;&lt;/span&gt;-&amp;nbsp;" style="rounded=0;whiteSpace=wrap;html=1;align=left;verticalAlign=top;fontFamily=Comic Sans MS;" vertex="1" parent="1">
          <mxGeometry x="170" y="10" width="270" height="250" as="geometry" />
        </mxCell>
        <mxCell id="1FVxKT_KeWVKLxRqhHUP-49" value="Type: QAEnv&lt;br&gt;Spec:&lt;br&gt;&lt;span style=&quot;white-space: pre;&quot;&gt;&#x9;&lt;/span&gt;imageRepositories: array&lt;br&gt;&lt;span style=&quot;white-space: pre;&quot;&gt;&#x9;&lt;/span&gt;githubRepoSecretRef: ref&lt;br&gt;&lt;span style=&quot;white-space: pre;&quot;&gt;&#x9;&lt;/span&gt;" style="whiteSpace=wrap;html=1;shape=mxgraph.basic.document;align=left;verticalAlign=top;fontFamily=Comic Sans MS;fontStyle=1" vertex="1" parent="1">
          <mxGeometry x="60" y="690" width="290" height="340" as="geometry" />
        </mxCell>
        <mxCell id="1FVxKT_KeWVKLxRqhHUP-52" value="Overview" style="text;html=1;align=center;verticalAlign=middle;resizable=0;points=[];autosize=1;strokeColor=none;fillColor=none;fontFamily=Comic Sans MS;" vertex="1" parent="1">
          <mxGeometry x="-30" y="18" width="80" height="30" as="geometry" />
        </mxCell>
        <mxCell id="1FVxKT_KeWVKLxRqhHUP-53" value="Reconcile Circle" style="text;html=1;align=center;verticalAlign=middle;resizable=0;points=[];autosize=1;strokeColor=none;fillColor=none;fontFamily=Comic Sans MS;" vertex="1" parent="1">
          <mxGeometry x="-55" y="1258" width="110" height="30" as="geometry" />
        </mxCell>
        <mxCell id="1FVxKT_KeWVKLxRqhHUP-58" value="&lt;span style=&quot;color: rgb(0, 0, 0); font-size: 12px; font-style: normal; font-variant-ligatures: normal; font-variant-caps: normal; font-weight: 400; letter-spacing: normal; orphans: 2; text-indent: 0px; text-transform: none; widows: 2; word-spacing: 0px; -webkit-text-stroke-width: 0px; background-color: rgb(251, 251, 251); text-decoration-thickness: initial; text-decoration-style: initial; text-decoration-color: initial; float: none; display: inline !important;&quot;&gt;Prerequisites:&lt;/span&gt;&lt;br style=&quot;border-color: var(--border-color); color: rgb(0, 0, 0); font-size: 12px; font-style: normal; font-variant-ligatures: normal; font-variant-caps: normal; font-weight: 400; letter-spacing: normal; orphans: 2; text-indent: 0px; text-transform: none; widows: 2; word-spacing: 0px; -webkit-text-stroke-width: 0px; background-color: rgb(251, 251, 251); text-decoration-thickness: initial; text-decoration-style: initial; text-decoration-color: initial;&quot;&gt;&lt;span style=&quot;color: rgb(0, 0, 0); font-size: 12px; font-style: normal; font-variant-ligatures: normal; font-variant-caps: normal; font-weight: 400; letter-spacing: normal; orphans: 2; text-indent: 0px; text-transform: none; widows: 2; word-spacing: 0px; -webkit-text-stroke-width: 0px; background-color: rgb(251, 251, 251); text-decoration-thickness: initial; text-decoration-style: initial; text-decoration-color: initial; float: none; display: inline !important;&quot;&gt;(1) - change image tag:&amp;nbsp;v-qa0.feat-VIBES-1394.20230720-064217 =&amp;gt;&amp;nbsp;&lt;/span&gt;v-qa0.&amp;lt;pr id&amp;gt;.20230720-064217" style="rounded=0;whiteSpace=wrap;html=1;verticalAlign=top;align=left;fontFamily=Comic Sans MS;" vertex="1" parent="1">
          <mxGeometry x="560" y="1320" width="300" height="370" as="geometry" />
        </mxCell>
        <mxCell id="1FVxKT_KeWVKLxRqhHUP-59" value="(1) - Get latest image for each env - set up with manager step&lt;br style=&quot;border-color: var(--border-color);&quot;&gt;&lt;span style=&quot;&quot;&gt;(2) - Detect update - from event of image policy - get latest from object&lt;/span&gt;&lt;br style=&quot;border-color: var(--border-color);&quot;&gt;&lt;span style=&quot;&quot;&gt;(3) &lt;span style=&quot;white-space: pre;&quot;&gt;&#x9;&lt;/span&gt;- create qaenv&lt;br&gt;&lt;span style=&quot;white-space: pre;&quot;&gt;&#x9;&lt;/span&gt;&amp;nbsp;&lt;span style=&quot;white-space: pre;&quot;&gt;&#x9;&lt;/span&gt;+ create qaenv object&lt;br&gt;&lt;span style=&quot;white-space: pre;&quot;&gt;&#x9;&lt;/span&gt;&lt;span style=&quot;white-space: pre;&quot;&gt;&#x9;&lt;/span&gt;+&amp;nbsp;&lt;br&gt;&lt;span style=&quot;white-space: pre;&quot;&gt;&#x9;&lt;/span&gt;- env policy:&amp;nbsp;&lt;br&gt;&lt;span style=&quot;white-space: pre;&quot;&gt;&#x9;&lt;/span&gt;&lt;span style=&quot;white-space: pre;&quot;&gt;&#x9;&lt;/span&gt;+ in the first time controller run =&amp;gt; create map hold initial value&lt;br&gt;&lt;span style=&quot;white-space: pre;&quot;&gt;&#x9;&lt;/span&gt;&lt;span style=&quot;white-space: pre;&quot;&gt;&#x9;&lt;/span&gt;+ detect change from init =&amp;gt; handle image tag change&lt;br&gt;&lt;/span&gt;" style="rounded=0;whiteSpace=wrap;html=1;verticalAlign=top;align=left;fontFamily=Comic Sans MS;" vertex="1" parent="1">
          <mxGeometry x="80" y="1320" width="410" height="370" as="geometry" />
        </mxCell>
        <mxCell id="1FVxKT_KeWVKLxRqhHUP-61" style="edgeStyle=orthogonalEdgeStyle;rounded=0;orthogonalLoop=1;jettySize=auto;html=1;" edge="1" parent="1" source="1FVxKT_KeWVKLxRqhHUP-60" target="1FVxKT_KeWVKLxRqhHUP-2">
          <mxGeometry relative="1" as="geometry" />
        </mxCell>
        <mxCell id="1FVxKT_KeWVKLxRqhHUP-60" value="git- repository" style="rounded=1;whiteSpace=wrap;html=1;fontFamily=Comic Sans MS;fillColor=#dae8fc;strokeColor=#6c8ebf;" vertex="1" parent="1">
          <mxGeometry x="305" y="480" width="120" height="60" as="geometry" />
        </mxCell>
      </root>
    </mxGraphModel>
  </diagram>
</mxfile>
